<?xml version="1.0" encoding="UTF-8" standalone="no"?>
<!DOCTYPE svg PUBLIC "-//W3C//DTD SVG 1.1//EN"
 "http://www.w3.org/Graphics/SVG/1.1/DTD/svg11.dtd">
<!-- Generated by graphviz version 2.26.3 (20100126.1600)
 -->
<!-- Title: controllers_diagram Pages: 1 -->
<svg width="770pt" height="799pt"
 viewBox="0.00 0.00 770.00 799.36" xmlns="http://www.w3.org/2000/svg" xmlns:xlink="http://www.w3.org/1999/xlink">
<g id="graph1" class="graph" transform="scale(1 1) rotate(0) translate(4 795.364)">
<title>controllers_diagram</title>
<polygon fill="white" stroke="white" points="-4,5 -4,-795.364 767,-795.364 767,5 -4,5"/>
<!-- _diagram_info -->
<g id="node1" class="node"><title>_diagram_info</title>
<text text-anchor="start" x="519" y="-741.3" font-family="Times Roman,serif" font-size="13.00">Controllers diagram</text>
<text text-anchor="start" x="519" y="-724.3" font-family="Times Roman,serif" font-size="13.00">Date: May 07 2014 &#45; 22:37</text>
<text text-anchor="start" x="519" y="-707.3" font-family="Times Roman,serif" font-size="13.00">Migration version: 20140409085527</text>
<text text-anchor="start" x="519" y="-690.3" font-family="Times Roman,serif" font-size="13.00">Generated by RailRoady 1.1.1</text>
<text text-anchor="start" x="519" y="-673.3" font-family="Times Roman,serif" font-size="13.00">http://railroady.prestonlee.com</text>
</g>
<!-- SessionsController -->
<g id="node2" class="node"><title>SessionsController</title>
<polyline fill="none" stroke="black" points="35.5182,-15.458 155.518,-15.458 "/>
<path fill="none" stroke="black" d="M155.518,-15.458C161.518,-15.458 167.518,-21.458 167.518,-27.458"/>
<polyline fill="none" stroke="black" points="167.518,-27.458 167.518,-141.458 "/>
<path fill="none" stroke="black" d="M167.518,-141.458C167.518,-147.458 161.518,-153.458 155.518,-153.458"/>
<polyline fill="none" stroke="black" points="155.518,-153.458 35.5182,-153.458 "/>
<path fill="none" stroke="black" d="M35.5182,-153.458C29.5182,-153.458 23.5182,-147.458 23.5182,-141.458"/>
<polyline fill="none" stroke="black" points="23.5182,-141.458 23.5182,-27.458 "/>
<path fill="none" stroke="black" d="M23.5182,-27.458C23.5182,-21.458 29.5182,-15.458 35.5182,-15.458"/>
<text text-anchor="middle" x="95.5182" y="-136.858" font-family="Times Roman,serif" font-size="14.00">SessionsController</text>
<polyline fill="none" stroke="black" points="23.5182,-127.458 167.518,-127.458 "/>
<text text-anchor="start" x="31.5182" y="-110.858" font-family="Times Roman,serif" font-size="14.00">create</text>
<text text-anchor="start" x="31.5182" y="-92.858" font-family="Times Roman,serif" font-size="14.00">destroy</text>
<text text-anchor="start" x="31.5182" y="-74.858" font-family="Times Roman,serif" font-size="14.00">new</text>
<polyline fill="none" stroke="black" points="23.5182,-65.458 167.518,-65.458 "/>
<polyline fill="none" stroke="black" points="23.5182,-41.458 167.518,-41.458 "/>
<text text-anchor="start" x="31.5182" y="-24.858" font-family="Times Roman,serif" font-size="14.00">_layout</text>
</g>
<!-- StaticPagesController -->
<g id="node3" class="node"><title>StaticPagesController</title>
<polyline fill="none" stroke="black" points="346.529,-419.633 487.529,-419.633 "/>
<path fill="none" stroke="black" d="M487.529,-419.633C493.529,-419.633 499.529,-425.633 499.529,-431.633"/>
<polyline fill="none" stroke="black" points="499.529,-431.633 499.529,-545.633 "/>
<path fill="none" stroke="black" d="M499.529,-545.633C499.529,-551.633 493.529,-557.633 487.529,-557.633"/>
<polyline fill="none" stroke="black" points="487.529,-557.633 346.529,-557.633 "/>
<path fill="none" stroke="black" d="M346.529,-557.633C340.529,-557.633 334.529,-551.633 334.529,-545.633"/>
<polyline fill="none" stroke="black" points="334.529,-545.633 334.529,-431.633 "/>
<path fill="none" stroke="black" d="M334.529,-431.633C334.529,-425.633 340.529,-419.633 346.529,-419.633"/>
<text text-anchor="middle" x="417.029" y="-541.033" font-family="Times Roman,serif" font-size="14.00">StaticPagesController</text>
<polyline fill="none" stroke="black" points="334.529,-531.633 499.529,-531.633 "/>
<text text-anchor="start" x="342.529" y="-515.033" font-family="Times Roman,serif" font-size="14.00">about</text>
<text text-anchor="start" x="342.529" y="-497.033" font-family="Times Roman,serif" font-size="14.00">help</text>
<text text-anchor="start" x="342.529" y="-479.033" font-family="Times Roman,serif" font-size="14.00">home</text>
<polyline fill="none" stroke="black" points="334.529,-469.633 499.529,-469.633 "/>
<polyline fill="none" stroke="black" points="334.529,-445.633 499.529,-445.633 "/>
<text text-anchor="start" x="342.529" y="-429.033" font-family="Times Roman,serif" font-size="14.00">_layout</text>
</g>
<!-- ProblemsController -->
<g id="node4" class="node"><title>ProblemsController</title>
<polyline fill="none" stroke="black" points="276.738,-1.5 490.738,-1.5 "/>
<path fill="none" stroke="black" d="M490.738,-1.5C496.738,-1.5 502.738,-7.5 502.738,-13.5"/>
<polyline fill="none" stroke="black" points="502.738,-13.5 502.738,-199.5 "/>
<path fill="none" stroke="black" d="M502.738,-199.5C502.738,-205.5 496.738,-211.5 490.738,-211.5"/>
<polyline fill="none" stroke="black" points="490.738,-211.5 276.738,-211.5 "/>
<path fill="none" stroke="black" d="M276.738,-211.5C270.738,-211.5 264.738,-205.5 264.738,-199.5"/>
<polyline fill="none" stroke="black" points="264.738,-199.5 264.738,-13.5 "/>
<path fill="none" stroke="black" d="M264.738,-13.5C264.738,-7.5 270.738,-1.5 276.738,-1.5"/>
<text text-anchor="middle" x="383.738" y="-194.9" font-family="Times Roman,serif" font-size="14.00">ProblemsController</text>
<polyline fill="none" stroke="black" points="264.738,-185.5 502.738,-185.5 "/>
<text text-anchor="start" x="272.738" y="-168.9" font-family="Times Roman,serif" font-size="14.00">_one_time_conditions_valid_24?</text>
<text text-anchor="start" x="272.738" y="-150.9" font-family="Times Roman,serif" font-size="14.00">_one_time_conditions_valid_26?</text>
<text text-anchor="start" x="272.738" y="-132.9" font-family="Times Roman,serif" font-size="14.00">add</text>
<text text-anchor="start" x="272.738" y="-114.9" font-family="Times Roman,serif" font-size="14.00">all</text>
<text text-anchor="start" x="272.738" y="-96.9" font-family="Times Roman,serif" font-size="14.00">create</text>
<text text-anchor="start" x="272.738" y="-78.9" font-family="Times Roman,serif" font-size="14.00">destroy</text>
<polyline fill="none" stroke="black" points="264.738,-69.5 502.738,-69.5 "/>
<polyline fill="none" stroke="black" points="264.738,-45.5 502.738,-45.5 "/>
<text text-anchor="start" x="272.738" y="-28.9" font-family="Times Roman,serif" font-size="14.00">_layout</text>
<text text-anchor="start" x="272.738" y="-10.9" font-family="Times Roman,serif" font-size="14.00">correct_user</text>
</g>
<!-- UsersController -->
<g id="node5" class="node"><title>UsersController</title>
<polyline fill="none" stroke="black" points="46.1493,-435.864 260.149,-435.864 "/>
<path fill="none" stroke="black" d="M260.149,-435.864C266.149,-435.864 272.149,-441.864 272.149,-447.864"/>
<polyline fill="none" stroke="black" points="272.149,-447.864 272.149,-777.864 "/>
<path fill="none" stroke="black" d="M272.149,-777.864C272.149,-783.864 266.149,-789.864 260.149,-789.864"/>
<polyline fill="none" stroke="black" points="260.149,-789.864 46.1493,-789.864 "/>
<path fill="none" stroke="black" d="M46.1493,-789.864C40.1493,-789.864 34.1493,-783.864 34.1493,-777.864"/>
<polyline fill="none" stroke="black" points="34.1493,-777.864 34.1493,-447.864 "/>
<path fill="none" stroke="black" d="M34.1493,-447.864C34.1493,-441.864 40.1493,-435.864 46.1493,-435.864"/>
<text text-anchor="middle" x="153.149" y="-773.264" font-family="Times Roman,serif" font-size="14.00">UsersController</text>
<polyline fill="none" stroke="black" points="34.1493,-763.864 272.149,-763.864 "/>
<text text-anchor="start" x="42.1493" y="-747.264" font-family="Times Roman,serif" font-size="14.00">_one_time_conditions_valid_68?</text>
<text text-anchor="start" x="42.1493" y="-729.264" font-family="Times Roman,serif" font-size="14.00">_one_time_conditions_valid_72?</text>
<text text-anchor="start" x="42.1493" y="-711.264" font-family="Times Roman,serif" font-size="14.00">_one_time_conditions_valid_76?</text>
<text text-anchor="start" x="42.1493" y="-693.264" font-family="Times Roman,serif" font-size="14.00">_one_time_conditions_valid_80?</text>
<text text-anchor="start" x="42.1493" y="-675.264" font-family="Times Roman,serif" font-size="14.00">create</text>
<text text-anchor="start" x="42.1493" y="-657.264" font-family="Times Roman,serif" font-size="14.00">destroy</text>
<text text-anchor="start" x="42.1493" y="-639.264" font-family="Times Roman,serif" font-size="14.00">edit</text>
<text text-anchor="start" x="42.1493" y="-621.264" font-family="Times Roman,serif" font-size="14.00">index</text>
<text text-anchor="start" x="42.1493" y="-603.264" font-family="Times Roman,serif" font-size="14.00">new</text>
<text text-anchor="start" x="42.1493" y="-585.264" font-family="Times Roman,serif" font-size="14.00">show</text>
<text text-anchor="start" x="42.1493" y="-567.264" font-family="Times Roman,serif" font-size="14.00">update</text>
<polyline fill="none" stroke="black" points="34.1493,-557.864 272.149,-557.864 "/>
<polyline fill="none" stroke="black" points="34.1493,-533.864 272.149,-533.864 "/>
<text text-anchor="start" x="42.1493" y="-517.264" font-family="Times Roman,serif" font-size="14.00">_layout</text>
<text text-anchor="start" x="42.1493" y="-499.264" font-family="Times Roman,serif" font-size="14.00">admin_user</text>
<text text-anchor="start" x="42.1493" y="-481.264" font-family="Times Roman,serif" font-size="14.00">correct_user</text>
<text text-anchor="start" x="42.1493" y="-463.264" font-family="Times Roman,serif" font-size="14.00">prepare_filials</text>
<text text-anchor="start" x="42.1493" y="-445.264" font-family="Times Roman,serif" font-size="14.00">user_params</text>
</g>
<!-- ApplicationController -->
<g id="node6" class="node"><title>ApplicationController</title>
<polyline fill="none" stroke="black" points="13,-298.27 227,-298.27 "/>
<path fill="none" stroke="black" d="M227,-298.27C233,-298.27 239,-304.27 239,-310.27"/>
<polyline fill="none" stroke="black" points="239,-310.27 239,-406.27 "/>
<path fill="none" stroke="black" d="M239,-406.27C239,-412.27 233,-418.27 227,-418.27"/>
<polyline fill="none" stroke="black" points="227,-418.27 13,-418.27 "/>
<path fill="none" stroke="black" d="M13,-418.27C7,-418.27 1,-412.27 1,-406.27"/>
<polyline fill="none" stroke="black" points="1,-406.27 1,-310.27 "/>
<path fill="none" stroke="black" d="M1,-310.27C1,-304.27 7,-298.27 13,-298.27"/>
<text text-anchor="middle" x="120" y="-401.67" font-family="Times Roman,serif" font-size="14.00">ApplicationController</text>
<polyline fill="none" stroke="black" points="1,-392.27 239,-392.27 "/>
<text text-anchor="start" x="9" y="-375.67" font-family="Times Roman,serif" font-size="14.00">_one_time_conditions_valid_12?</text>
<text text-anchor="start" x="9" y="-357.67" font-family="Times Roman,serif" font-size="14.00">handle_unverified_request</text>
<polyline fill="none" stroke="black" points="1,-348.27 239,-348.27 "/>
<polyline fill="none" stroke="black" points="1,-324.27 239,-324.27 "/>
<text text-anchor="start" x="9" y="-307.67" font-family="Times Roman,serif" font-size="14.00">_layout</text>
</g>
<!-- ApplicationController&#45;&gt;SessionsController -->
<g id="edge2" class="edge"><title>ApplicationController&#45;&gt;SessionsController</title>
<path fill="none" stroke="black" d="M114.627,-298.181C110.813,-255.519 105.683,-198.143 101.699,-153.581"/>
</g>
<!-- ApplicationController&#45;&gt;StaticPagesController -->
<g id="edge4" class="edge"><title>ApplicationController&#45;&gt;StaticPagesController</title>
<path fill="none" stroke="black" d="M239.102,-410.543C271.059,-424.568 304.908,-439.424 334.407,-452.371"/>
</g>
<!-- ApplicationController&#45;&gt;ProblemsController -->
<g id="edge6" class="edge"><title>ApplicationController&#45;&gt;ProblemsController</title>
<path fill="none" stroke="black" d="M183.172,-297.965C210.298,-272.07 242.804,-241.039 273.671,-211.573"/>
</g>
<!-- ApplicationController&#45;&gt;UsersController -->
<g id="edge8" class="edge"><title>ApplicationController&#45;&gt;UsersController</title>
<path fill="none" stroke="black" d="M127.814,-418.283C128.541,-423.869 129.3,-429.698 130.082,-435.703"/>
</g>
</g>
</svg>
