<?xml version="1.0" encoding="UTF-8" standalone="no"?>
<!DOCTYPE svg PUBLIC "-//W3C//DTD SVG 1.1//EN"
 "http://www.w3.org/Graphics/SVG/1.1/DTD/svg11.dtd">
<!-- Generated by graphviz version 2.26.3 (20100126.1600)
 -->
<!-- Title: controllers_diagram Pages: 1 -->
<svg width="770pt" height="766pt"
 viewBox="0.00 0.00 770.00 766.00" xmlns="http://www.w3.org/2000/svg" xmlns:xlink="http://www.w3.org/1999/xlink">
<g id="graph1" class="graph" transform="scale(1 1) rotate(0) translate(4 762)">
<title>controllers_diagram</title>
<polygon fill="white" stroke="white" points="-4,5 -4,-762 767,-762 767,5 -4,5"/>
<!-- _diagram_info -->
<g id="node1" class="node"><title>_diagram_info</title>
<text text-anchor="start" x="519" y="-741.3" font-family="Times Roman,serif" font-size="13.00">Controllers diagram</text>
<text text-anchor="start" x="519" y="-724.3" font-family="Times Roman,serif" font-size="13.00">Date: May 06 2014 &#45; 23:05</text>
<text text-anchor="start" x="519" y="-707.3" font-family="Times Roman,serif" font-size="13.00">Migration version: 20140409085527</text>
<text text-anchor="start" x="519" y="-690.3" font-family="Times Roman,serif" font-size="13.00">Generated by RailRoady 1.1.1</text>
<text text-anchor="start" x="519" y="-673.3" font-family="Times Roman,serif" font-size="13.00">http://railroady.prestonlee.com</text>
</g>
<!-- SessionsController -->
<g id="node2" class="node"><title>SessionsController</title>
<polyline fill="none" stroke="black" points="43.7479,-1.5 163.748,-1.5 "/>
<path fill="none" stroke="black" d="M163.748,-1.5C169.748,-1.5 175.748,-7.5 175.748,-13.5"/>
<polyline fill="none" stroke="black" points="175.748,-13.5 175.748,-127.5 "/>
<path fill="none" stroke="black" d="M175.748,-127.5C175.748,-133.5 169.748,-139.5 163.748,-139.5"/>
<polyline fill="none" stroke="black" points="163.748,-139.5 43.7479,-139.5 "/>
<path fill="none" stroke="black" d="M43.7479,-139.5C37.7479,-139.5 31.7479,-133.5 31.7479,-127.5"/>
<polyline fill="none" stroke="black" points="31.7479,-127.5 31.7479,-13.5 "/>
<path fill="none" stroke="black" d="M31.7479,-13.5C31.7479,-7.5 37.7479,-1.5 43.7479,-1.5"/>
<text text-anchor="middle" x="103.748" y="-122.9" font-family="Times Roman,serif" font-size="14.00">SessionsController</text>
<polyline fill="none" stroke="black" points="31.7479,-113.5 175.748,-113.5 "/>
<text text-anchor="start" x="39.7479" y="-96.9" font-family="Times Roman,serif" font-size="14.00">create</text>
<text text-anchor="start" x="39.7479" y="-78.9" font-family="Times Roman,serif" font-size="14.00">destroy</text>
<text text-anchor="start" x="39.7479" y="-60.9" font-family="Times Roman,serif" font-size="14.00">new</text>
<polyline fill="none" stroke="black" points="31.7479,-51.5 175.748,-51.5 "/>
<polyline fill="none" stroke="black" points="31.7479,-27.5 175.748,-27.5 "/>
<text text-anchor="start" x="39.7479" y="-10.9" font-family="Times Roman,serif" font-size="14.00">_layout</text>
</g>
<!-- StaticPagesController -->
<g id="node3" class="node"><title>StaticPagesController</title>
<polyline fill="none" stroke="black" points="336.642,-401.869 477.642,-401.869 "/>
<path fill="none" stroke="black" d="M477.642,-401.869C483.642,-401.869 489.642,-407.869 489.642,-413.869"/>
<polyline fill="none" stroke="black" points="489.642,-413.869 489.642,-563.869 "/>
<path fill="none" stroke="black" d="M489.642,-563.869C489.642,-569.869 483.642,-575.869 477.642,-575.869"/>
<polyline fill="none" stroke="black" points="477.642,-575.869 336.642,-575.869 "/>
<path fill="none" stroke="black" d="M336.642,-575.869C330.642,-575.869 324.642,-569.869 324.642,-563.869"/>
<polyline fill="none" stroke="black" points="324.642,-563.869 324.642,-413.869 "/>
<path fill="none" stroke="black" d="M324.642,-413.869C324.642,-407.869 330.642,-401.869 336.642,-401.869"/>
<text text-anchor="middle" x="407.142" y="-559.269" font-family="Times Roman,serif" font-size="14.00">StaticPagesController</text>
<polyline fill="none" stroke="black" points="324.642,-549.869 489.642,-549.869 "/>
<text text-anchor="start" x="332.642" y="-533.269" font-family="Times Roman,serif" font-size="14.00">about</text>
<text text-anchor="start" x="332.642" y="-515.269" font-family="Times Roman,serif" font-size="14.00">help</text>
<text text-anchor="start" x="332.642" y="-497.269" font-family="Times Roman,serif" font-size="14.00">home</text>
<text text-anchor="start" x="332.642" y="-479.269" font-family="Times Roman,serif" font-size="14.00">problemadd</text>
<text text-anchor="start" x="332.642" y="-461.269" font-family="Times Roman,serif" font-size="14.00">problemall</text>
<polyline fill="none" stroke="black" points="324.642,-451.869 489.642,-451.869 "/>
<polyline fill="none" stroke="black" points="324.642,-427.869 489.642,-427.869 "/>
<text text-anchor="start" x="332.642" y="-411.269" font-family="Times Roman,serif" font-size="14.00">_layout</text>
</g>
<!-- ProblemsController -->
<g id="node4" class="node"><title>ProblemsController</title>
<polyline fill="none" stroke="black" points="284.141,-25.094 498.141,-25.094 "/>
<path fill="none" stroke="black" d="M498.141,-25.094C504.141,-25.094 510.141,-31.094 510.141,-37.094"/>
<polyline fill="none" stroke="black" points="510.141,-37.094 510.141,-187.094 "/>
<path fill="none" stroke="black" d="M510.141,-187.094C510.141,-193.094 504.141,-199.094 498.141,-199.094"/>
<polyline fill="none" stroke="black" points="498.141,-199.094 284.141,-199.094 "/>
<path fill="none" stroke="black" d="M284.141,-199.094C278.141,-199.094 272.141,-193.094 272.141,-187.094"/>
<polyline fill="none" stroke="black" points="272.141,-187.094 272.141,-37.094 "/>
<path fill="none" stroke="black" d="M272.141,-37.094C272.141,-31.094 278.141,-25.094 284.141,-25.094"/>
<text text-anchor="middle" x="391.141" y="-182.494" font-family="Times Roman,serif" font-size="14.00">ProblemsController</text>
<polyline fill="none" stroke="black" points="272.141,-173.094 510.141,-173.094 "/>
<text text-anchor="start" x="280.141" y="-156.494" font-family="Times Roman,serif" font-size="14.00">_one_time_conditions_valid_24?</text>
<text text-anchor="start" x="280.141" y="-138.494" font-family="Times Roman,serif" font-size="14.00">_one_time_conditions_valid_26?</text>
<text text-anchor="start" x="280.141" y="-120.494" font-family="Times Roman,serif" font-size="14.00">create</text>
<text text-anchor="start" x="280.141" y="-102.494" font-family="Times Roman,serif" font-size="14.00">destroy</text>
<polyline fill="none" stroke="black" points="272.141,-93.094 510.141,-93.094 "/>
<polyline fill="none" stroke="black" points="272.141,-69.094 510.141,-69.094 "/>
<text text-anchor="start" x="280.141" y="-52.494" font-family="Times Roman,serif" font-size="14.00">_layout</text>
<text text-anchor="start" x="280.141" y="-34.494" font-family="Times Roman,serif" font-size="14.00">correct_user</text>
</g>
<!-- UsersController -->
<g id="node5" class="node"><title>UsersController</title>
<polyline fill="none" stroke="black" points="21.7364,-398.742 235.736,-398.742 "/>
<path fill="none" stroke="black" d="M235.736,-398.742C241.736,-398.742 247.736,-404.742 247.736,-410.742"/>
<polyline fill="none" stroke="black" points="247.736,-410.742 247.736,-740.742 "/>
<path fill="none" stroke="black" d="M247.736,-740.742C247.736,-746.742 241.736,-752.742 235.736,-752.742"/>
<polyline fill="none" stroke="black" points="235.736,-752.742 21.7364,-752.742 "/>
<path fill="none" stroke="black" d="M21.7364,-752.742C15.7364,-752.742 9.73644,-746.742 9.73644,-740.742"/>
<polyline fill="none" stroke="black" points="9.73644,-740.742 9.73644,-410.742 "/>
<path fill="none" stroke="black" d="M9.73644,-410.742C9.73644,-404.742 15.7364,-398.742 21.7364,-398.742"/>
<text text-anchor="middle" x="128.736" y="-736.142" font-family="Times Roman,serif" font-size="14.00">UsersController</text>
<polyline fill="none" stroke="black" points="9.73644,-726.742 247.736,-726.742 "/>
<text text-anchor="start" x="17.7364" y="-710.142" font-family="Times Roman,serif" font-size="14.00">_one_time_conditions_valid_68?</text>
<text text-anchor="start" x="17.7364" y="-692.142" font-family="Times Roman,serif" font-size="14.00">_one_time_conditions_valid_72?</text>
<text text-anchor="start" x="17.7364" y="-674.142" font-family="Times Roman,serif" font-size="14.00">_one_time_conditions_valid_76?</text>
<text text-anchor="start" x="17.7364" y="-656.142" font-family="Times Roman,serif" font-size="14.00">_one_time_conditions_valid_80?</text>
<text text-anchor="start" x="17.7364" y="-638.142" font-family="Times Roman,serif" font-size="14.00">create</text>
<text text-anchor="start" x="17.7364" y="-620.142" font-family="Times Roman,serif" font-size="14.00">destroy</text>
<text text-anchor="start" x="17.7364" y="-602.142" font-family="Times Roman,serif" font-size="14.00">edit</text>
<text text-anchor="start" x="17.7364" y="-584.142" font-family="Times Roman,serif" font-size="14.00">index</text>
<text text-anchor="start" x="17.7364" y="-566.142" font-family="Times Roman,serif" font-size="14.00">new</text>
<text text-anchor="start" x="17.7364" y="-548.142" font-family="Times Roman,serif" font-size="14.00">show</text>
<text text-anchor="start" x="17.7364" y="-530.142" font-family="Times Roman,serif" font-size="14.00">update</text>
<polyline fill="none" stroke="black" points="9.73644,-520.742 247.736,-520.742 "/>
<polyline fill="none" stroke="black" points="9.73644,-496.742 247.736,-496.742 "/>
<text text-anchor="start" x="17.7364" y="-480.142" font-family="Times Roman,serif" font-size="14.00">_layout</text>
<text text-anchor="start" x="17.7364" y="-462.142" font-family="Times Roman,serif" font-size="14.00">admin_user</text>
<text text-anchor="start" x="17.7364" y="-444.142" font-family="Times Roman,serif" font-size="14.00">correct_user</text>
<text text-anchor="start" x="17.7364" y="-426.142" font-family="Times Roman,serif" font-size="14.00">prepare_filials</text>
<text text-anchor="start" x="17.7364" y="-408.142" font-family="Times Roman,serif" font-size="14.00">user_params</text>
</g>
<!-- ApplicationController -->
<g id="node6" class="node"><title>ApplicationController</title>
<polyline fill="none" stroke="black" points="13,-268.767 227,-268.767 "/>
<path fill="none" stroke="black" d="M227,-268.767C233,-268.767 239,-274.767 239,-280.767"/>
<polyline fill="none" stroke="black" points="239,-280.767 239,-376.767 "/>
<path fill="none" stroke="black" d="M239,-376.767C239,-382.767 233,-388.767 227,-388.767"/>
<polyline fill="none" stroke="black" points="227,-388.767 13,-388.767 "/>
<path fill="none" stroke="black" d="M13,-388.767C7,-388.767 1,-382.767 1,-376.767"/>
<polyline fill="none" stroke="black" points="1,-376.767 1,-280.767 "/>
<path fill="none" stroke="black" d="M1,-280.767C1,-274.767 7,-268.767 13,-268.767"/>
<text text-anchor="middle" x="120" y="-372.167" font-family="Times Roman,serif" font-size="14.00">ApplicationController</text>
<polyline fill="none" stroke="black" points="1,-362.767 239,-362.767 "/>
<text text-anchor="start" x="9" y="-346.167" font-family="Times Roman,serif" font-size="14.00">_one_time_conditions_valid_12?</text>
<text text-anchor="start" x="9" y="-328.167" font-family="Times Roman,serif" font-size="14.00">handle_unverified_request</text>
<polyline fill="none" stroke="black" points="1,-318.767 239,-318.767 "/>
<polyline fill="none" stroke="black" points="1,-294.767 239,-294.767 "/>
<text text-anchor="start" x="9" y="-278.167" font-family="Times Roman,serif" font-size="14.00">_layout</text>
</g>
<!-- ApplicationController&#45;&gt;SessionsController -->
<g id="edge2" class="edge"><title>ApplicationController&#45;&gt;SessionsController</title>
<path fill="none" stroke="black" d="M116.21,-268.541C113.781,-229.936 110.62,-179.711 108.09,-139.501"/>
</g>
<!-- ApplicationController&#45;&gt;StaticPagesController -->
<g id="edge4" class="edge"><title>ApplicationController&#45;&gt;StaticPagesController</title>
<path fill="none" stroke="black" d="M238.663,-388.835C242.815,-391.08 246.917,-393.32 250.936,-395.542 274.988,-408.841 300.733,-423.879 324.243,-437.939"/>
</g>
<!-- ApplicationController&#45;&gt;ProblemsController -->
<g id="edge6" class="edge"><title>ApplicationController&#45;&gt;ProblemsController</title>
<path fill="none" stroke="black" d="M195.168,-268.699C222.046,-247.22 252.906,-222.56 282.064,-199.259"/>
</g>
<!-- ApplicationController&#45;&gt;UsersController -->
<g id="edge8" class="edge"><title>ApplicationController&#45;&gt;UsersController</title>
<path fill="none" stroke="black" d="M122.126,-388.868C122.237,-392.009 122.351,-395.225 122.467,-398.505"/>
</g>
</g>
</svg>
