<?xml version="1.0" encoding="UTF-8" standalone="no"?>
<!DOCTYPE svg PUBLIC "-//W3C//DTD SVG 1.1//EN"
 "http://www.w3.org/Graphics/SVG/1.1/DTD/svg11.dtd">
<!-- Generated by graphviz version 2.26.3 (20100126.1600)
 -->
<!-- Title: controllers_diagram Pages: 1 -->
<svg width="843pt" height="843pt"
 viewBox="0.00 0.00 843.00 843.24" xmlns="http://www.w3.org/2000/svg" xmlns:xlink="http://www.w3.org/1999/xlink">
<g id="graph1" class="graph" transform="scale(1 1) rotate(0) translate(4 839.243)">
<title>controllers_diagram</title>
<polygon fill="white" stroke="white" points="-4,5 -4,-839.243 840,-839.243 840,5 -4,5"/>
<!-- _diagram_info -->
<g id="node1" class="node"><title>_diagram_info</title>
<text text-anchor="start" x="592" y="-184.3" font-family="Times Roman,serif" font-size="13.00">Controllers diagram</text>
<text text-anchor="start" x="592" y="-167.3" font-family="Times Roman,serif" font-size="13.00">Date: Jun 09 2014 &#45; 14:22</text>
<text text-anchor="start" x="592" y="-150.3" font-family="Times Roman,serif" font-size="13.00">Migration version: 20140508213834</text>
<text text-anchor="start" x="592" y="-133.3" font-family="Times Roman,serif" font-size="13.00">Generated by RailRoady 1.1.1</text>
<text text-anchor="start" x="592" y="-116.3" font-family="Times Roman,serif" font-size="13.00">http://railroady.prestonlee.com</text>
</g>
<!-- SessionsController -->
<g id="node2" class="node"><title>SessionsController</title>
<polyline fill="none" stroke="black" points="48.6207,-61.6414 168.621,-61.6414 "/>
<path fill="none" stroke="black" d="M168.621,-61.6414C174.621,-61.6414 180.621,-67.6414 180.621,-73.6414"/>
<polyline fill="none" stroke="black" points="180.621,-73.6414 180.621,-187.641 "/>
<path fill="none" stroke="black" d="M180.621,-187.641C180.621,-193.641 174.621,-199.641 168.621,-199.641"/>
<polyline fill="none" stroke="black" points="168.621,-199.641 48.6207,-199.641 "/>
<path fill="none" stroke="black" d="M48.6207,-199.641C42.6207,-199.641 36.6207,-193.641 36.6207,-187.641"/>
<polyline fill="none" stroke="black" points="36.6207,-187.641 36.6207,-73.6414 "/>
<path fill="none" stroke="black" d="M36.6207,-73.6414C36.6207,-67.6414 42.6207,-61.6414 48.6207,-61.6414"/>
<text text-anchor="middle" x="108.621" y="-183.041" font-family="Times Roman,serif" font-size="14.00">SessionsController</text>
<polyline fill="none" stroke="black" points="36.6207,-173.641 180.621,-173.641 "/>
<text text-anchor="start" x="44.6207" y="-157.041" font-family="Times Roman,serif" font-size="14.00">create</text>
<text text-anchor="start" x="44.6207" y="-139.041" font-family="Times Roman,serif" font-size="14.00">destroy</text>
<text text-anchor="start" x="44.6207" y="-121.041" font-family="Times Roman,serif" font-size="14.00">new</text>
<polyline fill="none" stroke="black" points="36.6207,-111.641 180.621,-111.641 "/>
<polyline fill="none" stroke="black" points="36.6207,-87.6414 180.621,-87.6414 "/>
<text text-anchor="start" x="44.6207" y="-71.0414" font-family="Times Roman,serif" font-size="14.00">_layout</text>
</g>
<!-- StaticPagesController -->
<g id="node3" class="node"><title>StaticPagesController</title>
<polyline fill="none" stroke="black" points="326.056,-318.551 467.056,-318.551 "/>
<path fill="none" stroke="black" d="M467.056,-318.551C473.056,-318.551 479.056,-324.551 479.056,-330.551"/>
<polyline fill="none" stroke="black" points="479.056,-330.551 479.056,-444.551 "/>
<path fill="none" stroke="black" d="M479.056,-444.551C479.056,-450.551 473.056,-456.551 467.056,-456.551"/>
<polyline fill="none" stroke="black" points="467.056,-456.551 326.056,-456.551 "/>
<path fill="none" stroke="black" d="M326.056,-456.551C320.056,-456.551 314.056,-450.551 314.056,-444.551"/>
<polyline fill="none" stroke="black" points="314.056,-444.551 314.056,-330.551 "/>
<path fill="none" stroke="black" d="M314.056,-330.551C314.056,-324.551 320.056,-318.551 326.056,-318.551"/>
<text text-anchor="middle" x="396.556" y="-439.951" font-family="Times Roman,serif" font-size="14.00">StaticPagesController</text>
<polyline fill="none" stroke="black" points="314.056,-430.551 479.056,-430.551 "/>
<text text-anchor="start" x="322.056" y="-413.951" font-family="Times Roman,serif" font-size="14.00">about</text>
<text text-anchor="start" x="322.056" y="-395.951" font-family="Times Roman,serif" font-size="14.00">help</text>
<text text-anchor="start" x="322.056" y="-377.951" font-family="Times Roman,serif" font-size="14.00">home</text>
<polyline fill="none" stroke="black" points="314.056,-368.551 479.056,-368.551 "/>
<polyline fill="none" stroke="black" points="314.056,-344.551 479.056,-344.551 "/>
<text text-anchor="start" x="322.056" y="-327.951" font-family="Times Roman,serif" font-size="14.00">_layout</text>
</g>
<!-- ProblemsController -->
<g id="node4" class="node"><title>ProblemsController</title>
<polyline fill="none" stroke="black" points="278.566,-1.5 492.566,-1.5 "/>
<path fill="none" stroke="black" d="M492.566,-1.5C498.566,-1.5 504.566,-7.5 504.566,-13.5"/>
<polyline fill="none" stroke="black" points="504.566,-13.5 504.566,-235.5 "/>
<path fill="none" stroke="black" d="M504.566,-235.5C504.566,-241.5 498.566,-247.5 492.566,-247.5"/>
<polyline fill="none" stroke="black" points="492.566,-247.5 278.566,-247.5 "/>
<path fill="none" stroke="black" d="M278.566,-247.5C272.566,-247.5 266.566,-241.5 266.566,-235.5"/>
<polyline fill="none" stroke="black" points="266.566,-235.5 266.566,-13.5 "/>
<path fill="none" stroke="black" d="M266.566,-13.5C266.566,-7.5 272.566,-1.5 278.566,-1.5"/>
<text text-anchor="middle" x="385.566" y="-230.9" font-family="Times Roman,serif" font-size="14.00">ProblemsController</text>
<polyline fill="none" stroke="black" points="266.566,-221.5 504.566,-221.5 "/>
<text text-anchor="start" x="274.566" y="-204.9" font-family="Times Roman,serif" font-size="14.00">_one_time_conditions_valid_24?</text>
<text text-anchor="start" x="274.566" y="-186.9" font-family="Times Roman,serif" font-size="14.00">_one_time_conditions_valid_26?</text>
<text text-anchor="start" x="274.566" y="-168.9" font-family="Times Roman,serif" font-size="14.00">add</text>
<text text-anchor="start" x="274.566" y="-150.9" font-family="Times Roman,serif" font-size="14.00">all</text>
<text text-anchor="start" x="274.566" y="-132.9" font-family="Times Roman,serif" font-size="14.00">create</text>
<text text-anchor="start" x="274.566" y="-114.9" font-family="Times Roman,serif" font-size="14.00">destroy</text>
<text text-anchor="start" x="274.566" y="-96.9" font-family="Times Roman,serif" font-size="14.00">statistics</text>
<text text-anchor="start" x="274.566" y="-78.9" font-family="Times Roman,serif" font-size="14.00">update</text>
<polyline fill="none" stroke="black" points="266.566,-69.5 504.566,-69.5 "/>
<polyline fill="none" stroke="black" points="266.566,-45.5 504.566,-45.5 "/>
<text text-anchor="start" x="274.566" y="-28.9" font-family="Times Roman,serif" font-size="14.00">_layout</text>
<text text-anchor="start" x="274.566" y="-10.9" font-family="Times Roman,serif" font-size="14.00">correct_user</text>
</g>
<!-- UsersController -->
<g id="node5" class="node"><title>UsersController</title>
<polyline fill="none" stroke="black" points="280.548,-479.743 494.548,-479.743 "/>
<path fill="none" stroke="black" d="M494.548,-479.743C500.548,-479.743 506.548,-485.743 506.548,-491.743"/>
<polyline fill="none" stroke="black" points="506.548,-491.743 506.548,-821.743 "/>
<path fill="none" stroke="black" d="M506.548,-821.743C506.548,-827.743 500.548,-833.743 494.548,-833.743"/>
<polyline fill="none" stroke="black" points="494.548,-833.743 280.548,-833.743 "/>
<path fill="none" stroke="black" d="M280.548,-833.743C274.548,-833.743 268.548,-827.743 268.548,-821.743"/>
<polyline fill="none" stroke="black" points="268.548,-821.743 268.548,-491.743 "/>
<path fill="none" stroke="black" d="M268.548,-491.743C268.548,-485.743 274.548,-479.743 280.548,-479.743"/>
<text text-anchor="middle" x="387.548" y="-817.143" font-family="Times Roman,serif" font-size="14.00">UsersController</text>
<polyline fill="none" stroke="black" points="268.548,-807.743 506.548,-807.743 "/>
<text text-anchor="start" x="276.548" y="-791.143" font-family="Times Roman,serif" font-size="14.00">_one_time_conditions_valid_68?</text>
<text text-anchor="start" x="276.548" y="-773.143" font-family="Times Roman,serif" font-size="14.00">_one_time_conditions_valid_72?</text>
<text text-anchor="start" x="276.548" y="-755.143" font-family="Times Roman,serif" font-size="14.00">_one_time_conditions_valid_76?</text>
<text text-anchor="start" x="276.548" y="-737.143" font-family="Times Roman,serif" font-size="14.00">_one_time_conditions_valid_80?</text>
<text text-anchor="start" x="276.548" y="-719.143" font-family="Times Roman,serif" font-size="14.00">create</text>
<text text-anchor="start" x="276.548" y="-701.143" font-family="Times Roman,serif" font-size="14.00">destroy</text>
<text text-anchor="start" x="276.548" y="-683.143" font-family="Times Roman,serif" font-size="14.00">edit</text>
<text text-anchor="start" x="276.548" y="-665.143" font-family="Times Roman,serif" font-size="14.00">index</text>
<text text-anchor="start" x="276.548" y="-647.143" font-family="Times Roman,serif" font-size="14.00">new</text>
<text text-anchor="start" x="276.548" y="-629.143" font-family="Times Roman,serif" font-size="14.00">show</text>
<text text-anchor="start" x="276.548" y="-611.143" font-family="Times Roman,serif" font-size="14.00">update</text>
<polyline fill="none" stroke="black" points="268.548,-601.743 506.548,-601.743 "/>
<polyline fill="none" stroke="black" points="268.548,-577.743 506.548,-577.743 "/>
<text text-anchor="start" x="276.548" y="-561.143" font-family="Times Roman,serif" font-size="14.00">_layout</text>
<text text-anchor="start" x="276.548" y="-543.143" font-family="Times Roman,serif" font-size="14.00">admin_user</text>
<text text-anchor="start" x="276.548" y="-525.143" font-family="Times Roman,serif" font-size="14.00">correct_user</text>
<text text-anchor="start" x="276.548" y="-507.143" font-family="Times Roman,serif" font-size="14.00">prepare_filials</text>
<text text-anchor="start" x="276.548" y="-489.143" font-family="Times Roman,serif" font-size="14.00">user_params</text>
</g>
<!-- ApplicationController -->
<g id="node6" class="node"><title>ApplicationController</title>
<polyline fill="none" stroke="black" points="13,-335.42 227,-335.42 "/>
<path fill="none" stroke="black" d="M227,-335.42C233,-335.42 239,-341.42 239,-347.42"/>
<polyline fill="none" stroke="black" points="239,-347.42 239,-443.42 "/>
<path fill="none" stroke="black" d="M239,-443.42C239,-449.42 233,-455.42 227,-455.42"/>
<polyline fill="none" stroke="black" points="227,-455.42 13,-455.42 "/>
<path fill="none" stroke="black" d="M13,-455.42C7,-455.42 1,-449.42 1,-443.42"/>
<polyline fill="none" stroke="black" points="1,-443.42 1,-347.42 "/>
<path fill="none" stroke="black" d="M1,-347.42C1,-341.42 7,-335.42 13,-335.42"/>
<text text-anchor="middle" x="120" y="-438.82" font-family="Times Roman,serif" font-size="14.00">ApplicationController</text>
<polyline fill="none" stroke="black" points="1,-429.42 239,-429.42 "/>
<text text-anchor="start" x="9" y="-412.82" font-family="Times Roman,serif" font-size="14.00">_one_time_conditions_valid_12?</text>
<text text-anchor="start" x="9" y="-394.82" font-family="Times Roman,serif" font-size="14.00">handle_unverified_request</text>
<polyline fill="none" stroke="black" points="1,-385.42 239,-385.42 "/>
<polyline fill="none" stroke="black" points="1,-361.42 239,-361.42 "/>
<text text-anchor="start" x="9" y="-344.82" font-family="Times Roman,serif" font-size="14.00">_layout</text>
</g>
<!-- ApplicationController&#45;&gt;SessionsController -->
<g id="edge2" class="edge"><title>ApplicationController&#45;&gt;SessionsController</title>
<path fill="none" stroke="black" d="M117.418,-335.338C115.687,-295.057 113.402,-241.893 111.595,-199.842"/>
</g>
<!-- ApplicationController&#45;&gt;StaticPagesController -->
<g id="edge4" class="edge"><title>ApplicationController&#45;&gt;StaticPagesController</title>
<path fill="none" stroke="black" d="M239.291,-392.026C264.436,-391.31 290.434,-390.571 313.875,-389.904"/>
</g>
<!-- ApplicationController&#45;&gt;ProblemsController -->
<g id="edge6" class="edge"><title>ApplicationController&#45;&gt;ProblemsController</title>
<path fill="none" stroke="black" d="M178.938,-335.294C204.762,-308.949 236.051,-277.029 266.383,-246.086"/>
</g>
<!-- ApplicationController&#45;&gt;UsersController -->
<g id="edge8" class="edge"><title>ApplicationController&#45;&gt;UsersController</title>
<path fill="none" stroke="black" d="M181.717,-455.701C207.566,-480.949 238.531,-511.194 268.499,-540.464"/>
</g>
<!-- InvitesController -->
<g id="node7" class="node"><title>InvitesController</title>
<polyline fill="none" stroke="black" points="56.2522,-608.018 164.252,-608.018 "/>
<path fill="none" stroke="black" d="M164.252,-608.018C170.252,-608.018 176.252,-614.018 176.252,-620.018"/>
<polyline fill="none" stroke="black" points="176.252,-620.018 176.252,-698.018 "/>
<path fill="none" stroke="black" d="M176.252,-698.018C176.252,-704.018 170.252,-710.018 164.252,-710.018"/>
<polyline fill="none" stroke="black" points="164.252,-710.018 56.2522,-710.018 "/>
<path fill="none" stroke="black" d="M56.2522,-710.018C50.2522,-710.018 44.2522,-704.018 44.2522,-698.018"/>
<polyline fill="none" stroke="black" points="44.2522,-698.018 44.2522,-620.018 "/>
<path fill="none" stroke="black" d="M44.2522,-620.018C44.2522,-614.018 50.2522,-608.018 56.2522,-608.018"/>
<text text-anchor="middle" x="110.252" y="-693.418" font-family="Times Roman,serif" font-size="14.00">InvitesController</text>
<polyline fill="none" stroke="black" points="44.2522,-684.018 176.252,-684.018 "/>
<text text-anchor="start" x="52.2522" y="-667.418" font-family="Times Roman,serif" font-size="14.00">regcode</text>
<polyline fill="none" stroke="black" points="44.2522,-658.018 176.252,-658.018 "/>
<polyline fill="none" stroke="black" points="44.2522,-634.018 176.252,-634.018 "/>
<text text-anchor="start" x="52.2522" y="-617.418" font-family="Times Roman,serif" font-size="14.00">_layout</text>
</g>
<!-- ApplicationController&#45;&gt;InvitesController -->
<g id="edge10" class="edge"><title>ApplicationController&#45;&gt;InvitesController</title>
<path fill="none" stroke="black" d="M117.776,-455.565C116.073,-501.605 113.751,-564.407 112.139,-608.006"/>
</g>
</g>
</svg>
