<?xml version="1.0" encoding="UTF-8" standalone="no"?>
<!DOCTYPE svg PUBLIC "-//W3C//DTD SVG 1.1//EN"
 "http://www.w3.org/Graphics/SVG/1.1/DTD/svg11.dtd">
<!-- Generated by graphviz version 2.26.3 (20100126.1600)
 -->
<!-- Title: controllers_diagram Pages: 1 -->
<svg width="624pt" height="818pt"
 viewBox="0.00 0.00 624.00 818.50" xmlns="http://www.w3.org/2000/svg" xmlns:xlink="http://www.w3.org/1999/xlink">
<g id="graph1" class="graph" transform="scale(1 1) rotate(0) translate(4 814.499)">
<title>controllers_diagram</title>
<polygon fill="white" stroke="white" points="-4,5 -4,-814.499 621,-814.499 621,5 -4,5"/>
<!-- _diagram_info -->
<g id="node1" class="node"><title>_diagram_info</title>
<text text-anchor="start" x="373" y="-390.3" font-family="Times Roman,serif" font-size="13.00">Controllers diagram</text>
<text text-anchor="start" x="373" y="-373.3" font-family="Times Roman,serif" font-size="13.00">Date: May 10 2014 &#45; 17:17</text>
<text text-anchor="start" x="373" y="-356.3" font-family="Times Roman,serif" font-size="13.00">Migration version: 20140508213834</text>
<text text-anchor="start" x="373" y="-339.3" font-family="Times Roman,serif" font-size="13.00">Generated by RailRoady 1.1.1</text>
<text text-anchor="start" x="373" y="-322.3" font-family="Times Roman,serif" font-size="13.00">http://railroady.prestonlee.com</text>
</g>
<!-- SessionsController -->
<g id="node2" class="node"><title>SessionsController</title>
<polyline fill="none" stroke="black" points="38.2675,-22.227 158.268,-22.227 "/>
<path fill="none" stroke="black" d="M158.268,-22.227C164.268,-22.227 170.268,-28.227 170.268,-34.227"/>
<polyline fill="none" stroke="black" points="170.268,-34.227 170.268,-148.227 "/>
<path fill="none" stroke="black" d="M170.268,-148.227C170.268,-154.227 164.268,-160.227 158.268,-160.227"/>
<polyline fill="none" stroke="black" points="158.268,-160.227 38.2675,-160.227 "/>
<path fill="none" stroke="black" d="M38.2675,-160.227C32.2675,-160.227 26.2675,-154.227 26.2675,-148.227"/>
<polyline fill="none" stroke="black" points="26.2675,-148.227 26.2675,-34.227 "/>
<path fill="none" stroke="black" d="M26.2675,-34.227C26.2675,-28.227 32.2675,-22.227 38.2675,-22.227"/>
<text text-anchor="middle" x="98.2675" y="-143.627" font-family="Times Roman,serif" font-size="14.00">SessionsController</text>
<polyline fill="none" stroke="black" points="26.2675,-134.227 170.268,-134.227 "/>
<text text-anchor="start" x="34.2675" y="-117.627" font-family="Times Roman,serif" font-size="14.00">create</text>
<text text-anchor="start" x="34.2675" y="-99.627" font-family="Times Roman,serif" font-size="14.00">destroy</text>
<text text-anchor="start" x="34.2675" y="-81.627" font-family="Times Roman,serif" font-size="14.00">new</text>
<polyline fill="none" stroke="black" points="26.2675,-72.227 170.268,-72.227 "/>
<polyline fill="none" stroke="black" points="26.2675,-48.227 170.268,-48.227 "/>
<text text-anchor="start" x="34.2675" y="-31.627" font-family="Times Roman,serif" font-size="14.00">_layout</text>
</g>
<!-- StaticPagesController -->
<g id="node3" class="node"><title>StaticPagesController</title>
<polyline fill="none" stroke="black" points="347.781,-434.4 488.781,-434.4 "/>
<path fill="none" stroke="black" d="M488.781,-434.4C494.781,-434.4 500.781,-440.4 500.781,-446.4"/>
<polyline fill="none" stroke="black" points="500.781,-446.4 500.781,-560.4 "/>
<path fill="none" stroke="black" d="M500.781,-560.4C500.781,-566.4 494.781,-572.4 488.781,-572.4"/>
<polyline fill="none" stroke="black" points="488.781,-572.4 347.781,-572.4 "/>
<path fill="none" stroke="black" d="M347.781,-572.4C341.781,-572.4 335.781,-566.4 335.781,-560.4"/>
<polyline fill="none" stroke="black" points="335.781,-560.4 335.781,-446.4 "/>
<path fill="none" stroke="black" d="M335.781,-446.4C335.781,-440.4 341.781,-434.4 347.781,-434.4"/>
<text text-anchor="middle" x="418.281" y="-555.8" font-family="Times Roman,serif" font-size="14.00">StaticPagesController</text>
<polyline fill="none" stroke="black" points="335.781,-546.4 500.781,-546.4 "/>
<text text-anchor="start" x="343.781" y="-529.8" font-family="Times Roman,serif" font-size="14.00">about</text>
<text text-anchor="start" x="343.781" y="-511.8" font-family="Times Roman,serif" font-size="14.00">help</text>
<text text-anchor="start" x="343.781" y="-493.8" font-family="Times Roman,serif" font-size="14.00">home</text>
<polyline fill="none" stroke="black" points="335.781,-484.4 500.781,-484.4 "/>
<polyline fill="none" stroke="black" points="335.781,-460.4 500.781,-460.4 "/>
<text text-anchor="start" x="343.781" y="-443.8" font-family="Times Roman,serif" font-size="14.00">_layout</text>
</g>
<!-- ProblemsController -->
<g id="node4" class="node"><title>ProblemsController</title>
<polyline fill="none" stroke="black" points="278.961,-1.5 492.961,-1.5 "/>
<path fill="none" stroke="black" d="M492.961,-1.5C498.961,-1.5 504.961,-7.5 504.961,-13.5"/>
<polyline fill="none" stroke="black" points="504.961,-13.5 504.961,-217.5 "/>
<path fill="none" stroke="black" d="M504.961,-217.5C504.961,-223.5 498.961,-229.5 492.961,-229.5"/>
<polyline fill="none" stroke="black" points="492.961,-229.5 278.961,-229.5 "/>
<path fill="none" stroke="black" d="M278.961,-229.5C272.961,-229.5 266.961,-223.5 266.961,-217.5"/>
<polyline fill="none" stroke="black" points="266.961,-217.5 266.961,-13.5 "/>
<path fill="none" stroke="black" d="M266.961,-13.5C266.961,-7.5 272.961,-1.5 278.961,-1.5"/>
<text text-anchor="middle" x="385.961" y="-212.9" font-family="Times Roman,serif" font-size="14.00">ProblemsController</text>
<polyline fill="none" stroke="black" points="266.961,-203.5 504.961,-203.5 "/>
<text text-anchor="start" x="274.961" y="-186.9" font-family="Times Roman,serif" font-size="14.00">_one_time_conditions_valid_24?</text>
<text text-anchor="start" x="274.961" y="-168.9" font-family="Times Roman,serif" font-size="14.00">_one_time_conditions_valid_26?</text>
<text text-anchor="start" x="274.961" y="-150.9" font-family="Times Roman,serif" font-size="14.00">add</text>
<text text-anchor="start" x="274.961" y="-132.9" font-family="Times Roman,serif" font-size="14.00">all</text>
<text text-anchor="start" x="274.961" y="-114.9" font-family="Times Roman,serif" font-size="14.00">create</text>
<text text-anchor="start" x="274.961" y="-96.9" font-family="Times Roman,serif" font-size="14.00">destroy</text>
<text text-anchor="start" x="274.961" y="-78.9" font-family="Times Roman,serif" font-size="14.00">statistics</text>
<polyline fill="none" stroke="black" points="266.961,-69.5 504.961,-69.5 "/>
<polyline fill="none" stroke="black" points="266.961,-45.5 504.961,-45.5 "/>
<text text-anchor="start" x="274.961" y="-28.9" font-family="Times Roman,serif" font-size="14.00">_layout</text>
<text text-anchor="start" x="274.961" y="-10.9" font-family="Times Roman,serif" font-size="14.00">correct_user</text>
</g>
<!-- UsersController -->
<g id="node5" class="node"><title>UsersController</title>
<polyline fill="none" stroke="black" points="49.4392,-454.999 263.439,-454.999 "/>
<path fill="none" stroke="black" d="M263.439,-454.999C269.439,-454.999 275.439,-460.999 275.439,-466.999"/>
<polyline fill="none" stroke="black" points="275.439,-466.999 275.439,-796.999 "/>
<path fill="none" stroke="black" d="M275.439,-796.999C275.439,-802.999 269.439,-808.999 263.439,-808.999"/>
<polyline fill="none" stroke="black" points="263.439,-808.999 49.4392,-808.999 "/>
<path fill="none" stroke="black" d="M49.4392,-808.999C43.4392,-808.999 37.4392,-802.999 37.4392,-796.999"/>
<polyline fill="none" stroke="black" points="37.4392,-796.999 37.4392,-466.999 "/>
<path fill="none" stroke="black" d="M37.4392,-466.999C37.4392,-460.999 43.4392,-454.999 49.4392,-454.999"/>
<text text-anchor="middle" x="156.439" y="-792.399" font-family="Times Roman,serif" font-size="14.00">UsersController</text>
<polyline fill="none" stroke="black" points="37.4392,-782.999 275.439,-782.999 "/>
<text text-anchor="start" x="45.4392" y="-766.399" font-family="Times Roman,serif" font-size="14.00">_one_time_conditions_valid_68?</text>
<text text-anchor="start" x="45.4392" y="-748.399" font-family="Times Roman,serif" font-size="14.00">_one_time_conditions_valid_72?</text>
<text text-anchor="start" x="45.4392" y="-730.399" font-family="Times Roman,serif" font-size="14.00">_one_time_conditions_valid_76?</text>
<text text-anchor="start" x="45.4392" y="-712.399" font-family="Times Roman,serif" font-size="14.00">_one_time_conditions_valid_80?</text>
<text text-anchor="start" x="45.4392" y="-694.399" font-family="Times Roman,serif" font-size="14.00">create</text>
<text text-anchor="start" x="45.4392" y="-676.399" font-family="Times Roman,serif" font-size="14.00">destroy</text>
<text text-anchor="start" x="45.4392" y="-658.399" font-family="Times Roman,serif" font-size="14.00">edit</text>
<text text-anchor="start" x="45.4392" y="-640.399" font-family="Times Roman,serif" font-size="14.00">index</text>
<text text-anchor="start" x="45.4392" y="-622.399" font-family="Times Roman,serif" font-size="14.00">new</text>
<text text-anchor="start" x="45.4392" y="-604.399" font-family="Times Roman,serif" font-size="14.00">show</text>
<text text-anchor="start" x="45.4392" y="-586.399" font-family="Times Roman,serif" font-size="14.00">update</text>
<polyline fill="none" stroke="black" points="37.4392,-576.999 275.439,-576.999 "/>
<polyline fill="none" stroke="black" points="37.4392,-552.999 275.439,-552.999 "/>
<text text-anchor="start" x="45.4392" y="-536.399" font-family="Times Roman,serif" font-size="14.00">_layout</text>
<text text-anchor="start" x="45.4392" y="-518.399" font-family="Times Roman,serif" font-size="14.00">admin_user</text>
<text text-anchor="start" x="45.4392" y="-500.399" font-family="Times Roman,serif" font-size="14.00">correct_user</text>
<text text-anchor="start" x="45.4392" y="-482.399" font-family="Times Roman,serif" font-size="14.00">prepare_filials</text>
<text text-anchor="start" x="45.4392" y="-464.399" font-family="Times Roman,serif" font-size="14.00">user_params</text>
</g>
<!-- ApplicationController -->
<g id="node6" class="node"><title>ApplicationController</title>
<polyline fill="none" stroke="black" points="13,-311.744 227,-311.744 "/>
<path fill="none" stroke="black" d="M227,-311.744C233,-311.744 239,-317.744 239,-323.744"/>
<polyline fill="none" stroke="black" points="239,-323.744 239,-419.744 "/>
<path fill="none" stroke="black" d="M239,-419.744C239,-425.744 233,-431.744 227,-431.744"/>
<polyline fill="none" stroke="black" points="227,-431.744 13,-431.744 "/>
<path fill="none" stroke="black" d="M13,-431.744C7,-431.744 1,-425.744 1,-419.744"/>
<polyline fill="none" stroke="black" points="1,-419.744 1,-323.744 "/>
<path fill="none" stroke="black" d="M1,-323.744C1,-317.744 7,-311.744 13,-311.744"/>
<text text-anchor="middle" x="120" y="-415.144" font-family="Times Roman,serif" font-size="14.00">ApplicationController</text>
<polyline fill="none" stroke="black" points="1,-405.744 239,-405.744 "/>
<text text-anchor="start" x="9" y="-389.144" font-family="Times Roman,serif" font-size="14.00">_one_time_conditions_valid_12?</text>
<text text-anchor="start" x="9" y="-371.144" font-family="Times Roman,serif" font-size="14.00">handle_unverified_request</text>
<polyline fill="none" stroke="black" points="1,-361.744 239,-361.744 "/>
<polyline fill="none" stroke="black" points="1,-337.744 239,-337.744 "/>
<text text-anchor="start" x="9" y="-321.144" font-family="Times Roman,serif" font-size="14.00">_layout</text>
</g>
<!-- ApplicationController&#45;&gt;SessionsController -->
<g id="edge2" class="edge"><title>ApplicationController&#45;&gt;SessionsController</title>
<path fill="none" stroke="black" d="M115.338,-311.566C111.902,-267.214 107.221,-206.796 103.63,-160.444"/>
</g>
<!-- ApplicationController&#45;&gt;StaticPagesController -->
<g id="edge4" class="edge"><title>ApplicationController&#45;&gt;StaticPagesController</title>
<path fill="none" stroke="black" d="M239.174,-424.345C271.466,-438.598 305.713,-453.715 335.517,-466.87"/>
</g>
<!-- ApplicationController&#45;&gt;ProblemsController -->
<g id="edge6" class="edge"><title>ApplicationController&#45;&gt;ProblemsController</title>
<path fill="none" stroke="black" d="M182.356,-311.666C207.843,-287.11 238.205,-257.857 267.603,-229.533"/>
</g>
<!-- ApplicationController&#45;&gt;UsersController -->
<g id="edge8" class="edge"><title>ApplicationController&#45;&gt;UsersController</title>
<path fill="none" stroke="black" d="M128.406,-431.778C129.436,-439.134 130.525,-446.915 131.653,-454.974"/>
</g>
</g>
</svg>
