<?xml version="1.0" encoding="UTF-8" standalone="no"?>
<!DOCTYPE svg PUBLIC "-//W3C//DTD SVG 1.1//EN"
 "http://www.w3.org/Graphics/SVG/1.1/DTD/svg11.dtd">
<!-- Generated by graphviz version 2.26.3 (20100126.1600)
 -->
<!-- Title: models_diagram Pages: 1 -->
<svg width="581pt" height="732pt"
 viewBox="0.00 0.00 580.58 732.00" xmlns="http://www.w3.org/2000/svg" xmlns:xlink="http://www.w3.org/1999/xlink">
<g id="graph1" class="graph" transform="scale(1 1) rotate(0) translate(4 728)">
<title>models_diagram</title>
<polygon fill="white" stroke="white" points="-4,5 -4,-728 577.581,-728 577.581,5 -4,5"/>
<!-- _diagram_info -->
<g id="node1" class="node"><title>_diagram_info</title>
<text text-anchor="start" x="8" y="-707.8" font-family="Times Roman,serif" font-size="13.00">Models diagram</text>
<text text-anchor="start" x="8" y="-690.8" font-family="Times Roman,serif" font-size="13.00">Date: May 06 2014 &#45; 23:05</text>
<text text-anchor="start" x="8" y="-673.8" font-family="Times Roman,serif" font-size="13.00">Migration version: 20140409085527</text>
<text text-anchor="start" x="8" y="-656.8" font-family="Times Roman,serif" font-size="13.00">Generated by RailRoady 1.1.1</text>
<text text-anchor="start" x="8" y="-639.8" font-family="Times Roman,serif" font-size="13.00">http://railroady.prestonlee.com</text>
</g>
<!-- Problem -->
<g id="node2" class="node"><title>Problem</title>
<polyline fill="none" stroke="black" points="239.5,-1 394.5,-1 "/>
<path fill="none" stroke="black" d="M394.5,-1C400.5,-1 406.5,-7 406.5,-13"/>
<polyline fill="none" stroke="black" points="406.5,-13 406.5,-149 "/>
<path fill="none" stroke="black" d="M406.5,-149C406.5,-155 400.5,-161 394.5,-161"/>
<polyline fill="none" stroke="black" points="394.5,-161 239.5,-161 "/>
<path fill="none" stroke="black" d="M239.5,-161C233.5,-161 227.5,-155 227.5,-149"/>
<polyline fill="none" stroke="black" points="227.5,-149 227.5,-13 "/>
<path fill="none" stroke="black" d="M227.5,-13C227.5,-7 233.5,-1 239.5,-1"/>
<text text-anchor="middle" x="317" y="-144.4" font-family="Times Roman,serif" font-size="14.00">Problem</text>
<polyline fill="none" stroke="black" points="227.5,-135 406.5,-135 "/>
<text text-anchor="start" x="235.5" y="-118.4" font-family="Times Roman,serif" font-size="14.00">id :integer</text>
<text text-anchor="start" x="235.5" y="-100.4" font-family="Times Roman,serif" font-size="14.00">content :string</text>
<text text-anchor="start" x="235.5" y="-82.4" font-family="Times Roman,serif" font-size="14.00">admin_comment :string</text>
<text text-anchor="start" x="235.5" y="-64.4" font-family="Times Roman,serif" font-size="14.00">user_id :integer</text>
<text text-anchor="start" x="235.5" y="-46.4" font-family="Times Roman,serif" font-size="14.00">status_id :integer</text>
<text text-anchor="start" x="235.5" y="-28.4" font-family="Times Roman,serif" font-size="14.00">created_at :datetime</text>
<text text-anchor="start" x="235.5" y="-10.4" font-family="Times Roman,serif" font-size="14.00">updated_at :datetime</text>
</g>
<!-- Invite -->
<g id="node3" class="node"><title>Invite</title>
<polyline fill="none" stroke="black" points="210.5,-469 351.5,-469 "/>
<path fill="none" stroke="black" d="M351.5,-469C357.5,-469 363.5,-475 363.5,-481"/>
<polyline fill="none" stroke="black" points="363.5,-481 363.5,-563 "/>
<path fill="none" stroke="black" d="M363.5,-563C363.5,-569 357.5,-575 351.5,-575"/>
<polyline fill="none" stroke="black" points="351.5,-575 210.5,-575 "/>
<path fill="none" stroke="black" d="M210.5,-575C204.5,-575 198.5,-569 198.5,-563"/>
<polyline fill="none" stroke="black" points="198.5,-563 198.5,-481 "/>
<path fill="none" stroke="black" d="M198.5,-481C198.5,-475 204.5,-469 210.5,-469"/>
<text text-anchor="middle" x="281" y="-558.4" font-family="Times Roman,serif" font-size="14.00">Invite</text>
<polyline fill="none" stroke="black" points="198.5,-549 363.5,-549 "/>
<text text-anchor="start" x="206.5" y="-532.4" font-family="Times Roman,serif" font-size="14.00">id :integer</text>
<text text-anchor="start" x="206.5" y="-514.4" font-family="Times Roman,serif" font-size="14.00">code :string</text>
<text text-anchor="start" x="206.5" y="-496.4" font-family="Times Roman,serif" font-size="14.00">created_at :datetime</text>
<text text-anchor="start" x="206.5" y="-478.4" font-family="Times Roman,serif" font-size="14.00">updated_at :datetime</text>
</g>
<!-- Filial -->
<g id="node4" class="node"><title>Filial</title>
<polyline fill="none" stroke="black" points="392.5,-451 533.5,-451 "/>
<path fill="none" stroke="black" d="M533.5,-451C539.5,-451 545.5,-457 545.5,-463"/>
<polyline fill="none" stroke="black" points="545.5,-463 545.5,-581 "/>
<path fill="none" stroke="black" d="M545.5,-581C545.5,-587 539.5,-593 533.5,-593"/>
<polyline fill="none" stroke="black" points="533.5,-593 392.5,-593 "/>
<path fill="none" stroke="black" d="M392.5,-593C386.5,-593 380.5,-587 380.5,-581"/>
<polyline fill="none" stroke="black" points="380.5,-581 380.5,-463 "/>
<path fill="none" stroke="black" d="M380.5,-463C380.5,-457 386.5,-451 392.5,-451"/>
<text text-anchor="middle" x="463" y="-576.4" font-family="Times Roman,serif" font-size="14.00">Filial</text>
<polyline fill="none" stroke="black" points="380.5,-567 545.5,-567 "/>
<text text-anchor="start" x="388.5" y="-550.4" font-family="Times Roman,serif" font-size="14.00">id :integer</text>
<text text-anchor="start" x="388.5" y="-532.4" font-family="Times Roman,serif" font-size="14.00">name :string</text>
<text text-anchor="start" x="388.5" y="-514.4" font-family="Times Roman,serif" font-size="14.00">address :string</text>
<text text-anchor="start" x="388.5" y="-496.4" font-family="Times Roman,serif" font-size="14.00">phone :string</text>
<text text-anchor="start" x="388.5" y="-478.4" font-family="Times Roman,serif" font-size="14.00">created_at :datetime</text>
<text text-anchor="start" x="388.5" y="-460.4" font-family="Times Roman,serif" font-size="14.00">updated_at :datetime</text>
</g>
<!-- User -->
<g id="node5" class="node"><title>User</title>
<polyline fill="none" stroke="black" points="384,-199 542,-199 "/>
<path fill="none" stroke="black" d="M542,-199C548,-199 554,-205 554,-211"/>
<polyline fill="none" stroke="black" points="554,-211 554,-401 "/>
<path fill="none" stroke="black" d="M554,-401C554,-407 548,-413 542,-413"/>
<polyline fill="none" stroke="black" points="542,-413 384,-413 "/>
<path fill="none" stroke="black" d="M384,-413C378,-413 372,-407 372,-401"/>
<polyline fill="none" stroke="black" points="372,-401 372,-211 "/>
<path fill="none" stroke="black" d="M372,-211C372,-205 378,-199 384,-199"/>
<text text-anchor="middle" x="463" y="-396.4" font-family="Times Roman,serif" font-size="14.00">User</text>
<polyline fill="none" stroke="black" points="372,-387 554,-387 "/>
<text text-anchor="start" x="380" y="-370.4" font-family="Times Roman,serif" font-size="14.00">id :integer</text>
<text text-anchor="start" x="380" y="-352.4" font-family="Times Roman,serif" font-size="14.00">login :string</text>
<text text-anchor="start" x="380" y="-334.4" font-family="Times Roman,serif" font-size="14.00">filial_id :integer</text>
<text text-anchor="start" x="380" y="-316.4" font-family="Times Roman,serif" font-size="14.00">cabinet :string</text>
<text text-anchor="start" x="380" y="-298.4" font-family="Times Roman,serif" font-size="14.00">phone :string</text>
<text text-anchor="start" x="380" y="-280.4" font-family="Times Roman,serif" font-size="14.00">admin :boolean</text>
<text text-anchor="start" x="380" y="-262.4" font-family="Times Roman,serif" font-size="14.00">password_digest :string</text>
<text text-anchor="start" x="380" y="-244.4" font-family="Times Roman,serif" font-size="14.00">remember_token :string</text>
<text text-anchor="start" x="380" y="-226.4" font-family="Times Roman,serif" font-size="14.00">created_at :datetime</text>
<text text-anchor="start" x="380" y="-208.4" font-family="Times Roman,serif" font-size="14.00">updated_at :datetime</text>
</g>
<!-- Filial&#45;&gt;User -->
<g id="edge6" class="edge"><title>Filial&#45;&gt;User</title>
<path fill="none" stroke="#1ce8f6" d="M463,-442.891C463,-436.508 463,-429.98 463,-423.405"/>
<ellipse fill="none" stroke="#1ce8f6" cx="463" cy="-446.974" rx="4" ry="4"/>
<polygon fill="#1ce8f6" stroke="#1ce8f6" points="463,-423.048 467.5,-413.048 463,-418.048 463,-413.048 463,-413.048 463,-413.048 463,-418.048 458.5,-413.048 463,-423.048 463,-423.048"/>
</g>
<!-- User&#45;&gt;Problem -->
<g id="edge10" class="edge"><title>User&#45;&gt;Problem</title>
<path fill="none" stroke="#b3950b" d="M388.983,-191.933C384.129,-184.452 379.281,-176.981 374.524,-169.651"/>
<ellipse fill="none" stroke="#b3950b" cx="391.243" cy="-195.416" rx="4.00002" ry="4.00002"/>
<polygon fill="#b3950b" stroke="#b3950b" points="374.431,-169.507 372.763,-158.669 371.71,-165.313 368.988,-161.119 368.988,-161.119 368.988,-161.119 371.71,-165.313 365.213,-163.568 374.431,-169.507 374.431,-169.507"/>
</g>
<!-- ActiveRecord::Base -->
<g id="node6" class="node"><title>ActiveRecord::Base</title>
<ellipse fill="none" stroke="black" cx="372" cy="-677" rx="103.945" ry="18.3848"/>
<text text-anchor="middle" x="372" y="-673.4" font-family="Times Roman,serif" font-size="14.00">ActiveRecord::Base</text>
</g>
<!-- ActiveRecord::Base&#45;&gt;Problem -->
<g id="edge2" class="edge"><title>ActiveRecord::Base&#45;&gt;Problem</title>
<path fill="none" stroke="black" d="M331.444,-659.823C279.087,-637.456 194.144,-600.444 190,-594 102.908,-458.562 194.914,-267.725 261.389,-161.099"/>
</g>
<!-- ActiveRecord::Base&#45;&gt;Invite -->
<g id="edge4" class="edge"><title>ActiveRecord::Base&#45;&gt;Invite</title>
<path fill="none" stroke="black" d="M361.023,-658.303C348.969,-637.771 329.072,-603.881 312.135,-575.031"/>
</g>
<!-- ActiveRecord::Base&#45;&gt;Filial -->
<g id="edge8" class="edge"><title>ActiveRecord::Base&#45;&gt;Filial</title>
<path fill="none" stroke="black" d="M382.977,-658.303C392.573,-641.958 407.139,-617.147 421.226,-593.153"/>
</g>
<!-- ActiveRecord::Base&#45;&gt;User -->
<g id="edge12" class="edge"><title>ActiveRecord::Base&#45;&gt;User</title>
<path fill="none" stroke="black" d="M444.506,-663.675C484.102,-652.301 529.864,-631.535 554,-594 589.168,-539.31 568.916,-470.03 538.682,-413.127"/>
</g>
</g>
</svg>
