<?xml version="1.0" encoding="UTF-8" standalone="no"?>
<!DOCTYPE svg PUBLIC "-//W3C//DTD SVG 1.1//EN"
 "http://www.w3.org/Graphics/SVG/1.1/DTD/svg11.dtd">
<!-- Generated by graphviz version 2.26.3 (20100126.1600)
 -->
<!-- Title: models_diagram Pages: 1 -->
<svg width="484pt" height="324pt"
 viewBox="0.00 0.00 484.00 324.00" xmlns="http://www.w3.org/2000/svg" xmlns:xlink="http://www.w3.org/1999/xlink">
<g id="graph1" class="graph" transform="scale(1 1) rotate(0) translate(4 320)">
<title>models_diagram</title>
<polygon fill="white" stroke="white" points="-4,5 -4,-320 481,-320 481,5 -4,5"/>
<!-- _diagram_info -->
<g id="node1" class="node"><title>_diagram_info</title>
<text text-anchor="start" x="8" y="-299.8" font-family="Times Roman,serif" font-size="13.00">Models diagram</text>
<text text-anchor="start" x="8" y="-282.8" font-family="Times Roman,serif" font-size="13.00">Date: May 07 2014 &#45; 22:37</text>
<text text-anchor="start" x="8" y="-265.8" font-family="Times Roman,serif" font-size="13.00">Migration version: 20140409085527</text>
<text text-anchor="start" x="8" y="-248.8" font-family="Times Roman,serif" font-size="13.00">Generated by RailRoady 1.1.1</text>
<text text-anchor="start" x="8" y="-231.8" font-family="Times Roman,serif" font-size="13.00">http://railroady.prestonlee.com</text>
</g>
<!-- Problem -->
<g id="node2" class="node"><title>Problem</title>
<ellipse fill="none" stroke="black" cx="338" cy="-19" rx="50.9117" ry="18.3848"/>
<text text-anchor="middle" x="338" y="-15.4" font-family="Times Roman,serif" font-size="14.00">Problem</text>
</g>
<!-- Invite -->
<g id="node3" class="node"><title>Invite</title>
<ellipse fill="none" stroke="black" cx="327" cy="-167" rx="39.0967" ry="18.3848"/>
<text text-anchor="middle" x="327" y="-163.4" font-family="Times Roman,serif" font-size="14.00">Invite</text>
</g>
<!-- Filial -->
<g id="node4" class="node"><title>Filial</title>
<ellipse fill="none" stroke="black" cx="417" cy="-167" rx="33.234" ry="18.3848"/>
<text text-anchor="middle" x="417" y="-163.4" font-family="Times Roman,serif" font-size="14.00">Filial</text>
</g>
<!-- User -->
<g id="node5" class="node"><title>User</title>
<ellipse fill="none" stroke="black" cx="417" cy="-93" rx="33.9411" ry="18.3848"/>
<text text-anchor="middle" x="417" y="-89.4" font-family="Times Roman,serif" font-size="14.00">User</text>
</g>
<!-- Filial&#45;&gt;User -->
<g id="edge6" class="edge"><title>Filial&#45;&gt;User</title>
<path fill="none" stroke="#969dac" d="M417,-140.309C417,-134.377 417,-128.061 417,-122.04"/>
<ellipse fill="none" stroke="#969dac" cx="417" cy="-144.327" rx="4" ry="4"/>
<polygon fill="#969dac" stroke="#969dac" points="417,-121.667 421.5,-111.667 417,-116.667 417,-111.667 417,-111.667 417,-111.667 417,-116.667 412.5,-111.667 417,-121.667 417,-121.667"/>
</g>
<!-- User&#45;&gt;Problem -->
<g id="edge10" class="edge"><title>User&#45;&gt;Problem</title>
<path fill="none" stroke="#bcd4ca" d="M393.88,-71.3436C384.484,-62.5418 373.584,-52.3322 363.92,-43.2793"/>
<ellipse fill="none" stroke="#bcd4ca" cx="396.939" cy="-74.2086" rx="4.00002" ry="4.00002"/>
<polygon fill="#bcd4ca" stroke="#bcd4ca" points="363.784,-43.1525 359.563,-33.0319 360.135,-39.7343 356.486,-36.3161 356.486,-36.3161 356.486,-36.3161 360.135,-39.7343 353.41,-39.6004 363.784,-43.1525 363.784,-43.1525"/>
</g>
<!-- ActiveRecord::Base -->
<g id="node6" class="node"><title>ActiveRecord::Base</title>
<ellipse fill="none" stroke="black" cx="372" cy="-269" rx="103.945" ry="18.3848"/>
<text text-anchor="middle" x="372" y="-265.4" font-family="Times Roman,serif" font-size="14.00">ActiveRecord::Base</text>
</g>
<!-- ActiveRecord::Base&#45;&gt;Problem -->
<g id="edge2" class="edge"><title>ActiveRecord::Base&#45;&gt;Problem</title>
<path fill="none" stroke="black" d="M341.03,-251.27C319.185,-236.832 291.649,-214.243 279,-186 255.371,-133.241 298.266,-67.9076 322.721,-36.9217"/>
</g>
<!-- ActiveRecord::Base&#45;&gt;Invite -->
<g id="edge4" class="edge"><title>ActiveRecord::Base&#45;&gt;Invite</title>
<path fill="none" stroke="black" d="M363.746,-250.292C355.576,-231.773 343.148,-203.603 335.05,-185.247"/>
</g>
<!-- ActiveRecord::Base&#45;&gt;Filial -->
<g id="edge8" class="edge"><title>ActiveRecord::Base&#45;&gt;Filial</title>
<path fill="none" stroke="black" d="M380.254,-250.292C388.424,-231.773 400.852,-203.603 408.95,-185.247"/>
</g>
<!-- ActiveRecord::Base&#45;&gt;User -->
<g id="edge12" class="edge"><title>ActiveRecord::Base&#45;&gt;User</title>
<path fill="none" stroke="black" d="M400.594,-251.109C421.122,-236.442 447.171,-213.635 459,-186 465.646,-170.474 464.41,-163.999 459,-148 453.997,-133.204 443.244,-119.253 433.872,-109.103"/>
</g>
</g>
</svg>
