<?xml version="1.0" encoding="UTF-8" standalone="no"?>
<!DOCTYPE svg PUBLIC "-//W3C//DTD SVG 1.1//EN"
 "http://www.w3.org/Graphics/SVG/1.1/DTD/svg11.dtd">
<!-- Generated by graphviz version 2.26.3 (20100126.1600)
 -->
<!-- Title: models_diagram Pages: 1 -->
<svg width="581pt" height="750pt"
 viewBox="0.00 0.00 581.46 750.00" xmlns="http://www.w3.org/2000/svg" xmlns:xlink="http://www.w3.org/1999/xlink">
<g id="graph1" class="graph" transform="scale(1 1) rotate(0) translate(4 746)">
<title>models_diagram</title>
<polygon fill="white" stroke="white" points="-4,5 -4,-746 578.463,-746 578.463,5 -4,5"/>
<!-- _diagram_info -->
<g id="node1" class="node"><title>_diagram_info</title>
<text text-anchor="start" x="8" y="-725.8" font-family="Times Roman,serif" font-size="13.00">Models diagram</text>
<text text-anchor="start" x="8" y="-708.8" font-family="Times Roman,serif" font-size="13.00">Date: Jun 09 2014 &#45; 14:22</text>
<text text-anchor="start" x="8" y="-691.8" font-family="Times Roman,serif" font-size="13.00">Migration version: 20140508213834</text>
<text text-anchor="start" x="8" y="-674.8" font-family="Times Roman,serif" font-size="13.00">Generated by RailRoady 1.1.1</text>
<text text-anchor="start" x="8" y="-657.8" font-family="Times Roman,serif" font-size="13.00">http://railroady.prestonlee.com</text>
</g>
<!-- Problem -->
<g id="node2" class="node"><title>Problem</title>
<polyline fill="none" stroke="black" points="239.5,-1 394.5,-1 "/>
<path fill="none" stroke="black" d="M394.5,-1C400.5,-1 406.5,-7 406.5,-13"/>
<polyline fill="none" stroke="black" points="406.5,-13 406.5,-149 "/>
<path fill="none" stroke="black" d="M406.5,-149C406.5,-155 400.5,-161 394.5,-161"/>
<polyline fill="none" stroke="black" points="394.5,-161 239.5,-161 "/>
<path fill="none" stroke="black" d="M239.5,-161C233.5,-161 227.5,-155 227.5,-149"/>
<polyline fill="none" stroke="black" points="227.5,-149 227.5,-13 "/>
<path fill="none" stroke="black" d="M227.5,-13C227.5,-7 233.5,-1 239.5,-1"/>
<text text-anchor="middle" x="317" y="-144.4" font-family="Times Roman,serif" font-size="14.00">Problem</text>
<polyline fill="none" stroke="black" points="227.5,-135 406.5,-135 "/>
<text text-anchor="start" x="235.5" y="-118.4" font-family="Times Roman,serif" font-size="14.00">id :integer</text>
<text text-anchor="start" x="235.5" y="-100.4" font-family="Times Roman,serif" font-size="14.00">content :string</text>
<text text-anchor="start" x="235.5" y="-82.4" font-family="Times Roman,serif" font-size="14.00">admin_comment :string</text>
<text text-anchor="start" x="235.5" y="-64.4" font-family="Times Roman,serif" font-size="14.00">user_id :integer</text>
<text text-anchor="start" x="235.5" y="-46.4" font-family="Times Roman,serif" font-size="14.00">status_id :integer</text>
<text text-anchor="start" x="235.5" y="-28.4" font-family="Times Roman,serif" font-size="14.00">created_at :datetime</text>
<text text-anchor="start" x="235.5" y="-10.4" font-family="Times Roman,serif" font-size="14.00">updated_at :datetime</text>
</g>
<!-- Invite -->
<g id="node3" class="node"><title>Invite</title>
<polyline fill="none" stroke="black" points="210.5,-487 351.5,-487 "/>
<path fill="none" stroke="black" d="M351.5,-487C357.5,-487 363.5,-493 363.5,-499"/>
<polyline fill="none" stroke="black" points="363.5,-499 363.5,-581 "/>
<path fill="none" stroke="black" d="M363.5,-581C363.5,-587 357.5,-593 351.5,-593"/>
<polyline fill="none" stroke="black" points="351.5,-593 210.5,-593 "/>
<path fill="none" stroke="black" d="M210.5,-593C204.5,-593 198.5,-587 198.5,-581"/>
<polyline fill="none" stroke="black" points="198.5,-581 198.5,-499 "/>
<path fill="none" stroke="black" d="M198.5,-499C198.5,-493 204.5,-487 210.5,-487"/>
<text text-anchor="middle" x="281" y="-576.4" font-family="Times Roman,serif" font-size="14.00">Invite</text>
<polyline fill="none" stroke="black" points="198.5,-567 363.5,-567 "/>
<text text-anchor="start" x="206.5" y="-550.4" font-family="Times Roman,serif" font-size="14.00">id :integer</text>
<text text-anchor="start" x="206.5" y="-532.4" font-family="Times Roman,serif" font-size="14.00">code :string</text>
<text text-anchor="start" x="206.5" y="-514.4" font-family="Times Roman,serif" font-size="14.00">created_at :datetime</text>
<text text-anchor="start" x="206.5" y="-496.4" font-family="Times Roman,serif" font-size="14.00">updated_at :datetime</text>
</g>
<!-- Filial -->
<g id="node4" class="node"><title>Filial</title>
<polyline fill="none" stroke="black" points="392.5,-469 533.5,-469 "/>
<path fill="none" stroke="black" d="M533.5,-469C539.5,-469 545.5,-475 545.5,-481"/>
<polyline fill="none" stroke="black" points="545.5,-481 545.5,-599 "/>
<path fill="none" stroke="black" d="M545.5,-599C545.5,-605 539.5,-611 533.5,-611"/>
<polyline fill="none" stroke="black" points="533.5,-611 392.5,-611 "/>
<path fill="none" stroke="black" d="M392.5,-611C386.5,-611 380.5,-605 380.5,-599"/>
<polyline fill="none" stroke="black" points="380.5,-599 380.5,-481 "/>
<path fill="none" stroke="black" d="M380.5,-481C380.5,-475 386.5,-469 392.5,-469"/>
<text text-anchor="middle" x="463" y="-594.4" font-family="Times Roman,serif" font-size="14.00">Filial</text>
<polyline fill="none" stroke="black" points="380.5,-585 545.5,-585 "/>
<text text-anchor="start" x="388.5" y="-568.4" font-family="Times Roman,serif" font-size="14.00">id :integer</text>
<text text-anchor="start" x="388.5" y="-550.4" font-family="Times Roman,serif" font-size="14.00">name :string</text>
<text text-anchor="start" x="388.5" y="-532.4" font-family="Times Roman,serif" font-size="14.00">address :string</text>
<text text-anchor="start" x="388.5" y="-514.4" font-family="Times Roman,serif" font-size="14.00">phone :string</text>
<text text-anchor="start" x="388.5" y="-496.4" font-family="Times Roman,serif" font-size="14.00">created_at :datetime</text>
<text text-anchor="start" x="388.5" y="-478.4" font-family="Times Roman,serif" font-size="14.00">updated_at :datetime</text>
</g>
<!-- User -->
<g id="node5" class="node"><title>User</title>
<polyline fill="none" stroke="black" points="384,-199 542,-199 "/>
<path fill="none" stroke="black" d="M542,-199C548,-199 554,-205 554,-211"/>
<polyline fill="none" stroke="black" points="554,-211 554,-419 "/>
<path fill="none" stroke="black" d="M554,-419C554,-425 548,-431 542,-431"/>
<polyline fill="none" stroke="black" points="542,-431 384,-431 "/>
<path fill="none" stroke="black" d="M384,-431C378,-431 372,-425 372,-419"/>
<polyline fill="none" stroke="black" points="372,-419 372,-211 "/>
<path fill="none" stroke="black" d="M372,-211C372,-205 378,-199 384,-199"/>
<text text-anchor="middle" x="463" y="-414.4" font-family="Times Roman,serif" font-size="14.00">User</text>
<polyline fill="none" stroke="black" points="372,-405 554,-405 "/>
<text text-anchor="start" x="380" y="-388.4" font-family="Times Roman,serif" font-size="14.00">id :integer</text>
<text text-anchor="start" x="380" y="-370.4" font-family="Times Roman,serif" font-size="14.00">login :string</text>
<text text-anchor="start" x="380" y="-352.4" font-family="Times Roman,serif" font-size="14.00">filial_id :integer</text>
<text text-anchor="start" x="380" y="-334.4" font-family="Times Roman,serif" font-size="14.00">cabinet :string</text>
<text text-anchor="start" x="380" y="-316.4" font-family="Times Roman,serif" font-size="14.00">phone :string</text>
<text text-anchor="start" x="380" y="-298.4" font-family="Times Roman,serif" font-size="14.00">admin :boolean</text>
<text text-anchor="start" x="380" y="-280.4" font-family="Times Roman,serif" font-size="14.00">password_digest :string</text>
<text text-anchor="start" x="380" y="-262.4" font-family="Times Roman,serif" font-size="14.00">remember_token :string</text>
<text text-anchor="start" x="380" y="-244.4" font-family="Times Roman,serif" font-size="14.00">created_at :datetime</text>
<text text-anchor="start" x="380" y="-226.4" font-family="Times Roman,serif" font-size="14.00">updated_at :datetime</text>
<text text-anchor="start" x="380" y="-208.4" font-family="Times Roman,serif" font-size="14.00">name :string</text>
</g>
<!-- Filial&#45;&gt;User -->
<g id="edge6" class="edge"><title>Filial&#45;&gt;User</title>
<path fill="none" stroke="#9a5cb2" d="M463,-460.566C463,-454.34 463,-447.964 463,-441.527"/>
<ellipse fill="none" stroke="#9a5cb2" cx="463" cy="-464.809" rx="4" ry="4"/>
<polygon fill="#9a5cb2" stroke="#9a5cb2" points="463,-441.372 467.5,-431.372 463,-436.372 463,-431.372 463,-431.372 463,-431.372 463,-436.372 458.5,-431.372 463,-441.372 463,-441.372"/>
</g>
<!-- User&#45;&gt;Problem -->
<g id="edge10" class="edge"><title>User&#45;&gt;Problem</title>
<path fill="none" stroke="#42f950" d="M386.147,-191.825C381.469,-184.327 376.812,-176.863 372.254,-169.557"/>
<ellipse fill="none" stroke="#42f950" cx="388.31" cy="-195.292" rx="4.00002" ry="4.00002"/>
<polygon fill="#42f950" stroke="#42f950" points="372.246,-169.544 370.77,-158.678 369.599,-165.302 366.952,-161.06 366.952,-161.06 366.952,-161.06 369.599,-165.302 363.134,-163.442 372.246,-169.544 372.246,-169.544"/>
</g>
<!-- ActiveRecord::Base -->
<g id="node6" class="node"><title>ActiveRecord::Base</title>
<ellipse fill="none" stroke="black" cx="372" cy="-695" rx="103.945" ry="18.3848"/>
<text text-anchor="middle" x="372" y="-691.4" font-family="Times Roman,serif" font-size="14.00">ActiveRecord::Base</text>
</g>
<!-- ActiveRecord::Base&#45;&gt;Problem -->
<g id="edge2" class="edge"><title>ActiveRecord::Base&#45;&gt;Problem</title>
<path fill="none" stroke="black" d="M331.444,-677.823C279.087,-655.456 194.144,-618.444 190,-612 99.2571,-470.884 194.706,-271.064 262.257,-161.177"/>
</g>
<!-- ActiveRecord::Base&#45;&gt;Invite -->
<g id="edge4" class="edge"><title>ActiveRecord::Base&#45;&gt;Invite</title>
<path fill="none" stroke="black" d="M361.023,-676.303C348.969,-655.771 329.072,-621.881 312.135,-593.031"/>
</g>
<!-- ActiveRecord::Base&#45;&gt;Filial -->
<g id="edge8" class="edge"><title>ActiveRecord::Base&#45;&gt;Filial</title>
<path fill="none" stroke="black" d="M382.977,-676.303C392.573,-659.958 407.139,-635.147 421.226,-611.153"/>
</g>
<!-- ActiveRecord::Base&#45;&gt;User -->
<g id="edge12" class="edge"><title>ActiveRecord::Base&#45;&gt;User</title>
<path fill="none" stroke="black" d="M444.506,-681.675C484.102,-670.301 529.864,-649.535 554,-612 589.002,-557.568 571.194,-488.907 542.395,-431.317"/>
</g>
</g>
</svg>
